<?xml version="1.0" encoding="UTF-8"?>
<svg id="Layer_1" data-name="Layer 1" xmlns="http://www.w3.org/2000/svg" viewBox="0 0 1000 1000">
  <defs>
    <style>
      .cls-1 {
        stroke-width: 0px;
      }

      .cls-1, .cls-2 {
        fill: #ffd54f;
      }

      .cls-2 {
        stroke: #ffd54f;
        stroke-miterlimit: 10;
        stroke-width: 5px;
      }
    </style>
  </defs>
  <path class="cls-1" d="m843.7,147.18c-74.63,16.9-135.27,22.95-176.33,25.39-58.39,3.47-80.08-.19-132.64,8.13-50.65,8.02-93.12,14.75-138.83,41.45-29.5,17.23-100.29,58.59-117.03,141.33-15.16,74.96,24.05,134.43,30.32,143.62,49.28,72.25,132.06,83.73,169.23,88.88,23.93,3.32,118.13,16.38,195.68-43.96,16.74-13.02,55.56-44.12,70.16-99.36,11.86-44.87,1.37-81.55-.94-89.17-20.54-67.71-80.27-97.39-91.55-102.74,12.24,14.09,43.17,53.63,47,112.02,1.13,17.28,4.08,62.13-25.09,104.34-27.77,40.18-67.76,53.54-88.99,60.63-9.96,3.33-54.75,17.42-111.37,5.03-30.05-6.57-83.17-18.19-113.86-66.65-38.32-60.5-10.92-129.83-6.75-139.9,25.99-62.82,83.7-87.82,106.38-97.65,24.42-10.59,55.98-14.38,118.1-21.54,84.3-9.71,97.43-5.02,137.66-13.79,31.74-6.92,77-21.49,128.86-56.06Z"/>
  <path class="cls-2" d="m317.55,982.43c18.1-22.29,44.4-60.57,58.92-113.91,11.24-41.31,10.76-74.5,10.15-101.93-1.89-85.69-24.1-96.3-30.55-179.93-3.99-51.73-7.99-103.6,19.82-156.05,25.96-48.95,67.54-75.59,92.09-88.47-17.06,22.9-37.6,55.94-52.71,99-21.49,61.22-21.23,112-20.9,126.27.88,38.17,7.69,48.63,16.28,103.15,4.91,31.16,10.39,76.63,11.08,133.34,26.85-51.64,44.03-97.79,55.19-133.34,14.67-46.75,21.6-83.59,26.11-107.98,6.9-37.34,13.24-71.69,13.8-117.8.45-36.86-2.96-67.68-6.42-89.79,32.76,39.97,42.69,76.55,46.19,98.67,5.16,32.58-1.17,62.14-13.83,121.26-1.96,9.14-11.16,51.45-30,108.26-9.48,28.58-21.84,65.43-43.66,111.4-17.33,36.5-30.34,63.91-53.52,95.06-18.07,24.28-48.86,59.61-98.04,92.77Z"/>
  <circle class="cls-1" cx="477.53" cy="90.78" r="75.21"/>
</svg>